<?xml version="1.0"?>
<svg xmlns="http://www.w3.org/2000/svg" xmlns:xlink="http://www.w3.org/1999/xlink" version="1.1" id="Capa_1" x="0px" y="0px" width="512px" height="512px" viewBox="0 0 612 612" style="enable-background:new 0 0 612 612;" xml:space="preserve" class=""><g><g>
	<g id="_x33__3_">
		<g>
			<path d="M535.5,0h-459C34.253,0,0,34.253,0,76.5v459C0,577.747,34.253,612,76.5,612h459c42.247,0,76.5-34.253,76.5-76.5v-459     C612,34.253,577.747,0,535.5,0z M400.669,373.626c7.478,7.478,7.478,19.584,0,27.043c-7.479,7.478-19.584,7.478-27.043,0     L306,333.043l-67.626,67.606c-7.478,7.479-19.584,7.479-27.043,0c-7.478-7.478-7.478-19.584,0-27.043L278.957,306l-67.626-67.607     c-7.478-7.478-7.478-19.584,0-27.042c7.478-7.478,19.584-7.478,27.043,0L306,278.957l67.626-67.626     c7.478-7.478,19.584-7.478,27.043,0c7.478,7.478,7.478,19.584,0,27.043L333.043,306L400.669,373.626z" data-original="#000000" class="active-path" data-old_color="#3592f0" fill="#3592f0"/>
		</g>
	</g>
</g></g> </svg>
